# xmcd
#
# Track frame offsets:
#	150
#	21301
#	40080
#	62205
#	81439
#	97138
#	115955
#	135193
#	156011
#	177842
#	195822
#	214360
#	236113
#	254317
#	269409
#
# Disc length: 3834 seconds
#
# Revision: 0
# Processed by: cddbd v1.5.2PL0 Copyright (c) Steve Scherf et al.
# Submitted via: audiograbber 1.83.01
#
DISCID=d20ef80f
DTITLE=Chartbuster Karaoke - Essential 4 Disk 34
DYEAR=1900
DGENRE=Karaoke
TTITLE0=Alan Jackson - Little Man
TTITLE1=Chad Brock - Lightning Does The Work
TTITLE2=Dixie Chicks - Travelin' Soldier
TTITLE3=Montgomery Gentry - Daddy Won't Sell The Farm
TTITLE4=Chris Cagle - My Love Goes On and On
TTITLE5=Trisha Yearwood - Real Live Woman
TTITLE6=Billy Gilman - Oklahoma
TTITLE7=Alan Jackson and George Strait - Murder On Music Row
TTITLE8=Carolyn Dawn Johnson - I Don't Want You To Go
TTITLE9=Keith Urban - But for the Grace of God
TTITLE10=Phil Vassar - Just Another Day In Paradise
TTITLE11=Sara Evans - Saints and Angels
TTITLE12=Tim Rushlow - She Misses Him
TTITLE13=Kenny Chesney - How Forever Feels
TTITLE14=Chely Wright - Never Love You Enough
EXTD=
EXTT0=
EXTT1=
EXTT2=
EXTT3=
EXTT4=
EXTT5=
EXTT6=
EXTT7=
EXTT8=
EXTT9=
EXTT10=
EXTT11=
EXTT12=
EXTT13=
EXTT14=
PLAYORDER=
